<svg xmlns="http://www.w3.org/2000/svg" width="760" height="460" viewBox="0 0 760 460">
<text x="20" y="28" font-family="Arial" font-size="18" font-weight="bold">Age distribution (10-year bins)</text>
<rect x="0" y="0" width="100%" height="100%" fill="white"/>
<line x1="80" y1="390" x2="700" y2="390" stroke="black"/>
<line x1="80" y1="70" x2="80" y2="390" stroke="black"/>
<rect x="88.0" y="214.6" width="46.5" height="175.4" fill="#59a14f"/>
<text x="88.0" y="408" font-size="11">0-9</text>
<rect x="150.0" y="206.4" width="46.5" height="183.6" fill="#59a14f"/>
<text x="150.0" y="408" font-size="11">10-19</text>
<rect x="212.0" y="185.9" width="46.5" height="204.1" fill="#59a14f"/>
<text x="212.0" y="408" font-size="11">20-29</text>
<rect x="274.0" y="146.5" width="46.5" height="243.5" fill="#59a14f"/>
<text x="274.0" y="408" font-size="11">30-39</text>
<rect x="336.0" y="118.7" width="46.5" height="271.3" fill="#59a14f"/>
<text x="336.0" y="408" font-size="11">40-49</text>
<rect x="398.0" y="80.0" width="46.5" height="310.0" fill="#59a14f"/>
<text x="398.0" y="408" font-size="11">50-59</text>
<rect x="460.0" y="159.2" width="46.5" height="230.8" fill="#59a14f"/>
<text x="460.0" y="408" font-size="11">60-69</text>
<rect x="522.0" y="178.5" width="46.5" height="211.5" fill="#59a14f"/>
<text x="522.0" y="408" font-size="11">70-79</text>
<rect x="584.0" y="320.9" width="46.5" height="69.1" fill="#59a14f"/>
<text x="584.0" y="408" font-size="11">80-89</text>
<rect x="646.0" y="390.0" width="46.5" height="0.0" fill="#59a14f"/>
<text x="646.0" y="408" font-size="11">90-99</text>
</svg>